<?xml version="1.0" encoding="UTF-8" standalone="no"?>
<!-- Created with Inkscape (http://www.inkscape.org/) -->

<svg
   width="256"
   height="256"
   viewBox="0 0 67.733331 67.733331"
   version="1.1"
   id="svg26"
   inkscape:version="1.1.2 (0a00cf5339, 2022-02-04)"
   sodipodi:docname="favicon.svg"
   xmlns:inkscape="http://www.inkscape.org/namespaces/inkscape"
   xmlns:sodipodi="http://sodipodi.sourceforge.net/DTD/sodipodi-0.dtd"
   xmlns="http://www.w3.org/2000/svg"
   xmlns:svg="http://www.w3.org/2000/svg">
  <sodipodi:namedview
     id="namedview28"
     pagecolor="#ffffff"
     bordercolor="#666666"
     borderopacity="1.0"
     inkscape:pageshadow="2"
     inkscape:pageopacity="0.0"
     inkscape:pagecheckerboard="0"
     inkscape:document-units="mm"
     showgrid="false"
     units="px"
     inkscape:zoom="0.81385632"
     inkscape:cx="302.87901"
     inkscape:cy="113.04207"
     inkscape:window-width="1920"
     inkscape:window-height="1016"
     inkscape:window-x="0"
     inkscape:window-y="36"
     inkscape:window-maximized="1"
     inkscape:current-layer="layer1" />
  <defs
     id="defs23" />
  <g
     inkscape:label="Layer 1"
     inkscape:groupmode="layer"
     id="layer1">
    <path
       style="color:#000000;fill:#336666;fill-opacity:1;stroke-width:9.38455;-inkscape-stroke:none"
       d="M 30.123839,7.6762999 C 23.685683,8.5955539 17.585209,11.866306 13.224932,17.299516 4.5043873,28.165936 5.7205803,43.959605 15.99254,53.372853 26.26451,62.786109 42.108867,62.623037 52.173051,52.987883 62.237235,43.352775 63.089706,27.533138 54.1342,16.85955 l -1.906167,1.594707 c 8.12994,9.689634 7.358549,23.990404 -1.777866,32.737284 C 41.313762,59.93843 26.98547,60.085294 17.660442,51.539816 8.3354053,42.994337 7.2511253,28.722209 15.167763,18.857518 23.0844,8.9928269 37.267002,6.9649219 47.627577,14.220038 l 1.4113,-2.034625 C 43.332539,8.1894869 36.561985,6.7570269 30.123839,7.6762529 Z"
       id="path35812" />
  </g>
</svg>
